<svg xmlns="http://www.w3.org/2000/svg" xmlns:xlink="http://www.w3.org/1999/xlink" width="0.96em" height="1em" preserveAspectRatio="xMidYMid meet" viewBox="0 0 1408 1472" style="-ms-transform: rotate(360deg); -webkit-transform: rotate(360deg); transform: rotate(360deg);"><path d="M704 128q-144 0-225 106t-81 271q-1 205 132 325q17 16 12 41l-23 48q-11 24-32.5 37.5T396 995q-3 1-126.5 41T138 1080q-84 35-110 73q-28 63-28 319h1408q0-256-28-319q-26-38-110-73q-8-4-131.5-44T1012 995q-69-25-90.5-38.5T889 919l-23-48q-5-25 12-41q133-120 132-325q0-165-81-271T704 128z" fill="currentColor"/></svg>